<svg width="213" height="210" viewBox="0 0 213 210" fill="none" xmlns="http://www.w3.org/2000/svg">
<path d="M77.8393 20.0704C79.3493 20.3704 91.4393 22.9304 93.3493 30.8204C93.5393 31.6104 93.7793 33.0904 93.3493 35.1604C91.4793 44.0904 80.2593 48.8204 66.4593 56.6704C54.2093 63.6404 48.0793 67.1304 42.0593 72.8004C37.0093 77.5604 28.5193 85.7504 24.6893 99.2704C21.2893 111.27 23.1693 121.73 24.6893 127.4C25.2793 121.68 27.1693 111.8 34.1993 102.58C38.1693 97.3804 42.1593 94.5104 47.4393 90.7904C50.9893 88.2904 60.8793 81.6304 83.2193 73.7304C97.5593 68.6504 98.8393 69.5004 109.279 64.9404C122.589 59.1304 130.629 55.4704 132.859 47.5704C135.419 38.4604 128.549 29.7204 128.099 29.1604C123.879 23.9504 118.409 22.1704 114.169 20.8004C112.919 20.3904 108.749 19.1104 98.4493 18.9004C93.2693 18.7904 86.2293 18.9504 77.8393 20.0704Z" fill="#1EC177"/>
<path d="M143.49 191.211C141.98 190.911 129.89 188.351 127.98 180.461C127.79 179.671 127.55 178.191 127.98 176.121C129.85 167.191 141.07 162.461 154.87 154.611C167.12 147.641 173.25 144.151 179.27 138.481C184.32 133.721 192.81 125.531 196.64 112.011C200.04 100.011 198.16 89.5509 196.64 83.8809C196.05 89.6009 194.16 99.4809 187.13 108.701C183.16 113.901 179.17 116.771 173.89 120.491C170.34 122.991 160.45 129.651 138.11 137.551C123.77 142.631 122.49 141.781 112.05 146.341C98.7402 152.151 90.7002 155.811 88.4702 163.711C85.9102 172.821 92.7802 181.561 93.2302 182.121C97.4502 187.331 102.92 189.111 107.16 190.481C108.41 190.891 112.58 192.171 122.88 192.381C128.06 192.491 135.1 192.331 143.49 191.211Z" fill="#1EC177"/>
<path d="M159.05 28.3809C163.23 29.8909 175.03 34.7309 180.47 45.5009C181.62 47.7809 183.47 51.5609 182.95 56.4909C182.19 63.5809 177.03 68.2709 175.23 69.9109C172.26 72.6109 169.18 74.2209 167.07 75.1509C168.1 76.5109 169.12 77.8709 170.15 79.2309C163.46 77.7309 156.77 76.2209 150.08 74.7209C151.01 68.2109 151.93 61.6909 152.86 55.1809C153.91 56.3409 154.97 57.5109 156.02 58.6709C157.63 58.1709 167.06 55.1309 169.09 47.8309C169.62 45.9109 169.46 44.3509 169.36 43.3509C168.56 35.5809 161.76 30.2809 159.06 28.3909L159.05 28.3809Z" fill="white"/>
<path d="M26.3301 81.2206C27.7001 73.0706 30.3001 66.8506 32.3701 62.7706C35.6001 56.3906 39.1501 52.0706 41.9701 48.6906C44.5801 45.5606 47.5701 42.0006 52.3501 38.2206C57.0301 34.5306 61.4401 32.1806 64.6501 30.7206C63.6701 29.2806 62.6901 27.8306 61.7101 26.3906C68.5901 27.2806 75.4601 28.1806 82.3401 29.0706C79.9101 34.7706 77.4801 40.4706 75.0501 46.1606C73.7901 44.7106 72.5301 43.2606 71.2801 41.8106C66.7701 43.6206 60.6401 46.4306 53.8401 50.7006C50.2001 52.9906 45.7301 55.7906 41.1001 60.1206C37.1101 63.8506 31.0501 70.5406 26.3401 81.2206H26.3301Z" fill="white"/>
<path d="M194.821 127.4C193.451 135.55 190.851 141.77 188.781 145.85C185.551 152.23 182.001 156.55 179.181 159.93C176.571 163.06 173.581 166.62 168.801 170.4C164.121 174.09 159.711 176.44 156.501 177.9C157.481 179.34 158.461 180.79 159.441 182.23C152.561 181.34 145.691 180.44 138.811 179.55C141.241 173.85 143.671 168.15 146.101 162.46C147.361 163.91 148.621 165.36 149.871 166.81C154.381 165 160.511 162.19 167.311 157.92C170.951 155.63 175.421 152.83 180.051 148.5C184.041 144.77 190.101 138.08 194.811 127.4H194.821Z" fill="white"/>
<path d="M86.3291 150.031C88.8364 150.031 90.8691 147.999 90.8691 145.491C90.8691 142.984 88.8364 140.951 86.3291 140.951C83.8217 140.951 81.7891 142.984 81.7891 145.491C81.7891 147.999 83.8217 150.031 86.3291 150.031Z" fill="white"/>
<path d="M81.7998 191.31C84.3071 191.31 86.3398 189.278 86.3398 186.77C86.3398 184.263 84.3071 182.23 81.7998 182.23C79.2924 182.23 77.2598 184.263 77.2598 186.77C77.2598 189.278 79.2924 191.31 81.7998 191.31Z" fill="white"/>
<path d="M133.431 67.6308C135.938 67.6308 137.971 65.5982 137.971 63.0908C137.971 60.5834 135.938 58.5508 133.431 58.5508C130.923 58.5508 128.891 60.5834 128.891 63.0908C128.891 65.5982 130.923 67.6308 133.431 67.6308Z" fill="white"/>
<path d="M138.81 26.3808C141.317 26.3808 143.35 24.3482 143.35 21.8408C143.35 19.3334 141.317 17.3008 138.81 17.3008C136.302 17.3008 134.27 19.3334 134.27 21.8408C134.27 24.3482 136.302 26.3808 138.81 26.3808Z" fill="white"/>
<path d="M144.449 28.3809C144.579 28.6709 144.709 28.9709 144.839 29.3009" stroke="white" stroke-miterlimit="10"/>
<path d="M145.52 31.1406C146.43 33.9706 147.06 37.6406 146.42 41.8706C145.48 48.0306 142.23 52.8306 139.59 55.8906" stroke="white" stroke-miterlimit="10" stroke-dasharray="1.97 1.97"/>
<path d="M138.93 56.6406C138.69 56.9006 138.47 57.1406 138.25 57.3706" stroke="white" stroke-miterlimit="10"/>
<path d="M29.2305 127.53C29.3805 127.25 29.5405 126.96 29.7105 126.65" stroke="white" stroke-miterlimit="10"/>
<path d="M30.6914 124.959C32.4814 121.989 35.0914 118.269 38.7814 114.529C43.9214 109.309 49.0214 106.169 52.5514 104.369" stroke="white" stroke-miterlimit="10" stroke-dasharray="1.96 1.96"/>
<path d="M53.4297 103.93C53.7497 103.78 54.0497 103.63 54.3297 103.5" stroke="white" stroke-miterlimit="10"/>
<path d="M191.329 77.541C191.249 77.851 191.159 78.171 191.059 78.501" stroke="#FEFEFE" stroke-miterlimit="10"/>
<path d="M190.389 80.4707C189.119 83.8207 186.909 87.7907 182.929 91.2007C177.229 96.0807 170.309 97.7307 165.469 98.3107" stroke="white" stroke-miterlimit="10" stroke-dasharray="2.09 2.09"/>
<path d="M164.429 98.4316C164.079 98.4616 163.749 98.4916 163.439 98.5216" stroke="white" stroke-miterlimit="10"/>
<path d="M77.3801 178.251C77.2801 177.951 77.1801 177.631 77.0801 177.301" stroke="white" stroke-miterlimit="10"/>
<path d="M76.5492 175.242C75.9392 172.532 75.5392 169.072 75.9792 165.112C76.6292 159.312 78.8192 154.742 80.6592 151.752" stroke="white" stroke-miterlimit="10" stroke-dasharray="2.13 2.13"/>
<path d="M81.2383 150.851C81.4283 150.561 81.6183 150.281 81.7983 150.031" stroke="white" stroke-miterlimit="10"/>
<path d="M194.819 72.1698C197.327 72.1698 199.359 70.1372 199.359 67.6298C199.359 65.1225 197.327 63.0898 194.819 63.0898C192.312 63.0898 190.279 65.1225 190.279 67.6298C190.279 70.1372 192.312 72.1698 194.819 72.1698Z" fill="white"/>
<path d="M194.819 75.6513C199.248 75.6513 202.839 72.0606 202.839 67.6313C202.839 63.202 199.248 59.6113 194.819 59.6113C190.39 59.6113 186.799 63.202 186.799 67.6313C186.799 72.0606 190.39 75.6513 194.819 75.6513Z" stroke="white" stroke-miterlimit="10"/>
<path d="M22.7802 143.66C25.2876 143.66 27.3202 141.627 27.3202 139.12C27.3202 136.613 25.2876 134.58 22.7802 134.58C20.2729 134.58 18.2402 136.613 18.2402 139.12C18.2402 141.627 20.2729 143.66 22.7802 143.66Z" fill="#F8F8F8"/>
<path d="M22.7798 147.142C27.2091 147.142 30.7998 143.551 30.7998 139.122C30.7998 134.692 27.2091 131.102 22.7798 131.102C18.3504 131.102 14.7598 134.692 14.7598 139.122C14.7598 143.551 18.3504 147.142 22.7798 147.142Z" stroke="white" stroke-miterlimit="10"/>
<path d="M62.8007 178.25C58.6207 176.74 46.8207 171.9 41.3807 161.13C40.2307 158.85 38.3807 155.07 38.9007 150.14C39.6607 143.05 44.8207 138.36 46.6207 136.72C49.5907 134.02 52.6707 132.41 54.7807 131.48C53.7507 130.12 52.7307 128.76 51.7007 127.4C58.3907 128.9 65.0807 130.41 71.7707 131.91C70.8407 138.42 69.9207 144.94 68.9907 151.45C67.9407 150.29 66.8807 149.12 65.8307 147.96C64.2207 148.46 54.7907 151.5 52.7607 158.8C52.2307 160.72 52.3907 162.28 52.4907 163.28C53.2907 171.05 60.0907 176.35 62.7907 178.24L62.8007 178.25Z" fill="#FBFBFB"/>
<path d="M92.1494 88.2799C90.6594 87.0999 88.8694 86.1999 86.7694 85.5899C84.6694 84.9799 82.3094 84.6699 79.6994 84.6699H63.6094V125.04H72.3594V113.6H77.7994C81.9594 113.6 85.4394 113.06 88.2294 111.98C91.0194 110.9 93.1294 109.29 94.5594 107.15C95.9894 105.01 96.6994 102.37 96.6994 99.2299C96.6994 96.7799 96.3094 94.6399 95.5394 92.8099C94.7694 90.9699 93.6294 89.4699 92.1394 88.2799H92.1494ZM85.6594 104.95C84.1694 106.15 81.9594 106.75 79.0194 106.75H72.3494V91.4599H79.4494C82.3494 91.4599 84.4794 92.0899 85.8394 93.3599C87.2094 94.6199 87.8894 96.4999 87.8894 98.9899C87.8894 101.76 87.1494 103.75 85.6594 104.95Z" fill="#0169CA"/>
<path d="M142.079 117.52H141.469L134.309 84.6699H123.119L116.019 117.52H115.409L109.349 84.6699H99.8086L108.929 125.04H121.469L128.319 92.1899H128.929L135.719 125.04H148.019L157.249 84.6699H148.139L142.079 117.52Z" fill="#0169CA"/>
</svg>
