<?xml version="1.0" encoding="UTF-8"?>
<svg id="Layer_5" xmlns="http://www.w3.org/2000/svg" version="1.1" viewBox="0 0 212.86 209.71">
  <!-- Generator: Adobe Illustrator 30.1.0, SVG Export Plug-In . SVG Version: 2.1.1 Build 136)  -->
  <defs>
    <style>
      .st0 {
        stroke-dasharray: 2.09 2.09;
      }

      .st0, .st1, .st2, .st3, .st4 {
        fill: none;
        stroke: #000;
        stroke-miterlimit: 10;
      }

      .st5 {
        fill: #0169ca;
      }

      .st1 {
        stroke-dasharray: 2.13 2.13;
      }

      .st2 {
        stroke-dasharray: 1.97 1.97;
      }

      .st3 {
        stroke-dasharray: 1.96 1.96;
      }

      .st6 {
        fill: #1ec177;
      }
    </style>
  </defs>
  <g>
    <path class="st6" d="M77.84,20.07c1.51.3,13.6,2.86,15.51,10.75.19.79.43,2.27,0,4.34-1.87,8.93-13.09,13.66-26.89,21.51-12.25,6.97-18.38,10.46-24.4,16.13-5.05,4.76-13.54,12.95-17.37,26.47-3.4,12-1.52,22.46,0,28.13.59-5.72,2.48-15.6,9.51-24.82,3.97-5.2,7.96-8.07,13.24-11.79,3.55-2.5,13.44-9.16,35.78-17.06,14.34-5.08,15.62-4.23,26.06-8.79,13.31-5.81,21.35-9.47,23.58-17.37,2.56-9.11-4.31-17.85-4.76-18.41-4.22-5.21-9.69-6.99-13.93-8.36-1.25-.41-5.42-1.69-15.72-1.9-5.18-.11-12.22.05-20.61,1.17Z"/>
    <path class="st6" d="M143.49,191.21c-1.51-.3-13.6-2.86-15.51-10.75-.19-.79-.43-2.27,0-4.34,1.87-8.93,13.09-13.66,26.89-21.51,12.25-6.97,18.38-10.46,24.4-16.13,5.05-4.76,13.54-12.95,17.37-26.47,3.4-12,1.52-22.46,0-28.13-.59,5.72-2.48,15.6-9.51,24.82-3.97,5.2-7.96,8.07-13.24,11.79-3.55,2.5-13.44,9.16-35.78,17.06-14.34,5.08-15.62,4.23-26.06,8.79-13.31,5.81-21.35,9.47-23.58,17.37-2.56,9.11,4.31,17.85,4.76,18.41,4.22,5.21,9.69,6.99,13.93,8.36,1.25.41,5.42,1.69,15.72,1.9,5.18.11,12.22-.05,20.61-1.17Z"/>
    <path d="M159.05,28.38c4.18,1.51,15.98,6.35,21.42,17.12,1.15,2.28,3,6.06,2.48,10.99-.76,7.09-5.92,11.78-7.72,13.42-2.97,2.7-6.05,4.31-8.16,5.24,1.03,1.36,2.05,2.72,3.08,4.08-6.69-1.5-13.38-3.01-20.07-4.51.93-6.51,1.85-13.03,2.78-19.54,1.05,1.16,2.11,2.33,3.16,3.49,1.61-.5,11.04-3.54,13.07-10.84.53-1.92.37-3.48.27-4.48-.8-7.77-7.6-13.07-10.3-14.96Z"/>
    <path d="M26.33,81.22c1.37-8.15,3.97-14.37,6.04-18.45,3.23-6.38,6.78-10.7,9.6-14.08,2.61-3.13,5.6-6.69,10.38-10.47,4.68-3.69,9.09-6.04,12.3-7.5-.98-1.44-1.96-2.89-2.94-4.33,6.88.89,13.75,1.79,20.63,2.68-2.43,5.7-4.86,11.4-7.29,17.09-1.26-1.45-2.52-2.9-3.77-4.35-4.51,1.81-10.64,4.62-17.44,8.89-3.64,2.29-8.11,5.09-12.74,9.42-3.99,3.73-10.05,10.42-14.76,21.1Z"/>
    <path d="M194.82,127.4c-1.37,8.15-3.97,14.37-6.04,18.45-3.23,6.38-6.78,10.7-9.6,14.08-2.61,3.13-5.6,6.69-10.38,10.47-4.68,3.69-9.09,6.04-12.3,7.5.98,1.44,1.96,2.89,2.94,4.33-6.88-.89-13.75-1.79-20.63-2.68,2.43-5.7,4.86-11.4,7.29-17.09,1.26,1.45,2.52,2.9,3.77,4.35,4.51-1.81,10.64-4.62,17.44-8.89,3.64-2.29,8.11-5.09,12.74-9.42,3.99-3.73,10.05-10.42,14.76-21.1Z"/>
    <circle cx="86.33" cy="145.49" r="4.54"/>
    <circle cx="81.8" cy="186.77" r="4.54"/>
    <circle cx="133.43" cy="63.09" r="4.54"/>
    <circle cx="138.81" cy="21.84" r="4.54"/>
    <g>
      <path class="st4" d="M144.45,28.38c.13.29.26.59.39.92"/>
      <path class="st2" d="M145.52,31.14c.91,2.83,1.54,6.5.9,10.73-.94,6.16-4.19,10.96-6.83,14.02"/>
      <path class="st4" d="M138.93,56.64c-.24.26-.46.5-.68.73"/>
    </g>
    <g>
      <path class="st4" d="M29.23,127.53c.15-.28.31-.57.48-.88"/>
      <path class="st3" d="M30.69,124.96c1.79-2.97,4.4-6.69,8.09-10.43,5.14-5.22,10.24-8.36,13.77-10.16"/>
      <path class="st4" d="M53.43,103.93c.32-.15.62-.3.9-.43"/>
    </g>
    <g>
      <path class="st4" d="M191.33,77.54c-.08.31-.17.63-.27.96"/>
      <path class="st0" d="M190.39,80.47c-1.27,3.35-3.48,7.32-7.46,10.73-5.7,4.88-12.62,6.53-17.46,7.11"/>
      <path class="st4" d="M164.43,98.43c-.35.03-.68.06-.99.09"/>
    </g>
    <g>
      <path class="st4" d="M77.38,178.25c-.1-.3-.2-.62-.3-.95"/>
      <path class="st1" d="M76.55,175.24c-.61-2.71-1.01-6.17-.57-10.13.65-5.8,2.84-10.37,4.68-13.36"/>
      <path class="st4" d="M81.24,150.85c.19-.29.38-.57.56-.82"/>
    </g>
    <circle cx="194.82" cy="67.63" r="4.54"/>
    <circle class="st4" cx="194.82" cy="67.63" r="8.02"/>
    <circle cx="22.78" cy="139.12" r="4.54"/>
    <circle class="st4" cx="22.78" cy="139.12" r="8.02"/>
    <path d="M62.8,178.25c-4.18-1.51-15.98-6.35-21.42-17.12-1.15-2.28-3-6.06-2.48-10.99.76-7.09,5.92-11.78,7.72-13.42,2.97-2.7,6.05-4.31,8.16-5.24-1.03-1.36-2.05-2.72-3.08-4.08,6.69,1.5,13.38,3.01,20.07,4.51-.93,6.51-1.85,13.03-2.78,19.54-1.05-1.16-2.11-2.33-3.16-3.49-1.61.5-11.04,3.54-13.07,10.84-.53,1.92-.37,3.48-.27,4.48.8,7.77,7.6,13.07,10.3,14.96Z"/>
  </g>
  <g>
    <path class="st5" d="M92.15,88.28c-1.49-1.18-3.28-2.08-5.38-2.69-2.1-.61-4.46-.92-7.07-.92h-16.09v40.37h8.75v-11.44h5.44c4.16,0,7.64-.54,10.43-1.62,2.79-1.08,4.9-2.69,6.33-4.83,1.43-2.14,2.14-4.78,2.14-7.92,0-2.45-.39-4.59-1.16-6.42-.77-1.84-1.91-3.34-3.4-4.53ZM85.66,104.95c-1.49,1.2-3.7,1.8-6.64,1.8h-6.67v-15.29h7.1c2.9,0,5.03.63,6.39,1.9,1.37,1.26,2.05,3.14,2.05,5.63,0,2.77-.74,4.76-2.23,5.96Z"/>
    <polygon class="st5" points="142.08 117.52 141.47 117.52 134.31 84.67 123.12 84.67 116.02 117.52 115.41 117.52 109.35 84.67 99.81 84.67 108.93 125.04 121.47 125.04 128.32 92.19 128.93 92.19 135.72 125.04 148.02 125.04 157.25 84.67 148.14 84.67 142.08 117.52"/>
  </g>
</svg>